<?xml version="1.0" encoding="UTF-8" standalone="no"?>
<!DOCTYPE svg PUBLIC "-//W3C//DTD SVG 1.0//EN" "http://www.w3.org/TR/2001/PR-SVG-20010719/DTD/svg10.dtd">
<svg width="70cm" height="28cm" viewBox="39 -121 1397 546" xmlns="http://www.w3.org/2000/svg" xmlns:xlink="http://www.w3.org/1999/xlink">
  <g>
    <rect style="fill: #ffffff" x="620" y="-20" width="222.6" height="156"/>
    <rect style="fill: none; fill-opacity:0; stroke-width: 2; stroke: #000000" x="620" y="-20" width="222.6" height="156"/>
    <text style="fill: #000000;text-anchor:middle;font-size:12.8;font-family:monospace;font-style:normal;font-weight:normal" x="731.3" y="-4">&lt;&lt;Backbone.Model&gt;&gt;</text>
    <text style="fill: #000000;text-anchor:middle;font-size:16;font-family:sanserif;font-style:italic;font-weight:700" x="731.3" y="15">ConcertBackboneModel</text>
    <text style="fill: #000000;text-anchor:middle;font-size:11.2;font-family:sanserif;font-style:italic;font-weight:normal" x="731.3" y="30.5">A base model class that</text>
    <text style="fill: #000000;text-anchor:middle;font-size:11.2;font-family:sanserif;font-style:italic;font-weight:normal" x="731.3" y="44.5">will handle setting up</text>
    <text style="fill: #000000;text-anchor:middle;font-size:11.2;font-family:sanserif;font-style:italic;font-weight:normal" x="731.3" y="58.5">all model relationships</text>
    <text style="fill: #000000;text-anchor:middle;font-size:11.2;font-family:sanserif;font-style:italic;font-weight:normal" x="731.3" y="72.5">and such in a general</text>
    <text style="fill: #000000;text-anchor:middle;font-size:11.2;font-family:sanserif;font-style:italic;font-weight:normal" x="731.3" y="86.5">way.  SeenInstances is</text>
    <text style="fill: #000000;text-anchor:middle;font-size:11.2;font-family:sanserif;font-style:italic;font-weight:normal" x="731.3" y="100.5">checked for an instance</text>
    <text style="fill: #000000;text-anchor:middle;font-size:11.2;font-family:sanserif;font-style:italic;font-weight:normal" x="731.3" y="114.5">that already exists for</text>
    <text style="fill: #000000;text-anchor:middle;font-size:11.2;font-family:sanserif;font-style:italic;font-weight:normal" x="731.3" y="128.5">a related model, etc.</text>
  </g>
  <g>
    <rect style="fill: #ffffff" x="40" y="260" width="194.8" height="72"/>
    <rect style="fill: none; fill-opacity:0; stroke-width: 2; stroke: #000000" x="40" y="260" width="194.8" height="72"/>
    <text style="fill: #000000;text-anchor:middle;font-size:12.8;font-family:monospace;font-style:normal;font-weight:normal" x="137.4" y="276">&lt;&lt;ConcertBackboneModel&gt;&gt;</text>
    <text style="fill: #000000;text-anchor:middle;font-size:16;font-family:sanserif;font-style:normal;font-weight:700" x="137.4" y="295">User</text>
    <text style="fill: #000000;text-anchor:middle;font-size:11.2;font-family:sanserif;font-style:italic;font-weight:normal" x="137.4" y="310.5">Represents a user</text>
    <text style="fill: #000000;text-anchor:middle;font-size:11.2;font-family:sanserif;font-style:italic;font-weight:normal" x="137.4" y="324.5">object</text>
  </g>
  <g>
    <rect style="fill: #ffffff" x="520" y="253" width="194.8" height="86"/>
    <rect style="fill: none; fill-opacity:0; stroke-width: 2; stroke: #000000" x="520" y="253" width="194.8" height="86"/>
    <text style="fill: #000000;text-anchor:middle;font-size:12.8;font-family:monospace;font-style:normal;font-weight:normal" x="617.4" y="269">&lt;&lt;ConcertBackboneModel&gt;&gt;</text>
    <text style="fill: #000000;text-anchor:middle;font-size:16;font-family:sanserif;font-style:normal;font-weight:700" x="617.4" y="288">Request</text>
    <text style="fill: #000000;text-anchor:middle;font-size:11.2;font-family:sanserif;font-style:italic;font-weight:normal" x="617.4" y="303.5">Represents a concert</text>
    <text style="fill: #000000;text-anchor:middle;font-size:11.2;font-family:sanserif;font-style:italic;font-weight:normal" x="617.4" y="317.5">Request object (request</text>
    <text style="fill: #000000;text-anchor:middle;font-size:11.2;font-family:sanserif;font-style:italic;font-weight:normal" x="617.4" y="331.5">to join a group)</text>
  </g>
  <g>
    <polyline style="fill: none; fill-opacity:0; stroke-width: 2; stroke: #000000" points="731.3,155.229 731.3,220 137.4,220 137.4,258.993 "/>
    <polygon style="fill: #ffffff" points="739.3,155.229 731.3,139.229 723.3,155.229 "/>
    <polygon style="fill: none; fill-opacity:0; stroke-width: 2; stroke: #000000" points="739.3,155.229 731.3,139.229 723.3,155.229 "/>
  </g>
  <g>
    <polyline style="fill: none; fill-opacity:0; stroke-width: 2; stroke: #000000" points="731.3,155.229 731.3,220 377.4,220 377.4,238.017 "/>
    <polygon style="fill: #ffffff" points="739.3,155.229 731.3,139.229 723.3,155.229 "/>
    <polygon style="fill: none; fill-opacity:0; stroke-width: 2; stroke: #000000" points="739.3,155.229 731.3,139.229 723.3,155.229 "/>
  </g>
  <g>
    <polyline style="fill: none; fill-opacity:0; stroke-width: 2; stroke: #000000" points="731.3,155.229 731.3,220 617.4,220 617.4,252.025 "/>
    <polygon style="fill: #ffffff" points="739.3,155.229 731.3,139.229 723.3,155.229 "/>
    <polygon style="fill: none; fill-opacity:0; stroke-width: 2; stroke: #000000" points="739.3,155.229 731.3,139.229 723.3,155.229 "/>
  </g>
  <g>
    <rect style="fill: #ffffff" x="280" y="239" width="194.8" height="114"/>
    <rect style="fill: none; fill-opacity:0; stroke-width: 2; stroke: #000000" x="280" y="239" width="194.8" height="114"/>
    <text style="fill: #000000;text-anchor:middle;font-size:12.8;font-family:monospace;font-style:normal;font-weight:normal" x="377.4" y="255">&lt;&lt;ConcertBackboneModel&gt;&gt;</text>
    <text style="fill: #000000;text-anchor:middle;font-size:16;font-family:sanserif;font-style:normal;font-weight:700" x="377.4" y="274">Collection</text>
    <text style="fill: #000000;text-anchor:middle;font-size:11.2;font-family:sanserif;font-style:italic;font-weight:normal" x="377.4" y="289.5">A Collection of</text>
    <text style="fill: #000000;text-anchor:middle;font-size:11.2;font-family:sanserif;font-style:italic;font-weight:normal" x="377.4" y="303.5">AudioFiles,</text>
    <text style="fill: #000000;text-anchor:middle;font-size:11.2;font-family:sanserif;font-style:italic;font-weight:normal" x="377.4" y="317.5">AudioSegments, Tags,</text>
    <text style="fill: #000000;text-anchor:middle;font-size:11.2;font-family:sanserif;font-style:italic;font-weight:normal" x="377.4" y="331.5">and Users who can</text>
    <text style="fill: #000000;text-anchor:middle;font-size:11.2;font-family:sanserif;font-style:italic;font-weight:normal" x="377.4" y="345.5">collaborate on them.</text>
  </g>
  <g>
    <rect style="fill: #ffffff" x="1240" y="253" width="194.8" height="86"/>
    <rect style="fill: none; fill-opacity:0; stroke-width: 2; stroke: #000000" x="1240" y="253" width="194.8" height="86"/>
    <text style="fill: #000000;text-anchor:middle;font-size:12.8;font-family:monospace;font-style:normal;font-weight:normal" x="1337.4" y="269">&lt;&lt;ConcertBackboneModel&gt;&gt;</text>
    <text style="fill: #000000;text-anchor:middle;font-size:16;font-family:sanserif;font-style:normal;font-weight:700" x="1337.4" y="288">Tag</text>
    <text style="fill: #000000;text-anchor:middle;font-size:11.2;font-family:sanserif;font-style:italic;font-weight:normal" x="1337.4" y="303.5">A tag on an</text>
    <text style="fill: #000000;text-anchor:middle;font-size:11.2;font-family:sanserif;font-style:italic;font-weight:normal" x="1337.4" y="317.5">AudioSegment</text>
    <text style="fill: #000000;text-anchor:middle;font-size:11.2;font-family:sanserif;font-style:italic;font-weight:normal" x="1337.4" y="331.5">object.</text>
  </g>
  <g>
    <rect style="fill: #ffffff" x="1000" y="260" width="194.8" height="72"/>
    <rect style="fill: none; fill-opacity:0; stroke-width: 2; stroke: #000000" x="1000" y="260" width="194.8" height="72"/>
    <text style="fill: #000000;text-anchor:middle;font-size:12.8;font-family:monospace;font-style:normal;font-weight:normal" x="1097.4" y="276">&lt;&lt;ConcertBackboneModel&gt;&gt;</text>
    <text style="fill: #000000;text-anchor:middle;font-size:16;font-family:sanserif;font-style:normal;font-weight:700" x="1097.4" y="295">AudioSegment</text>
    <text style="fill: #000000;text-anchor:middle;font-size:11.2;font-family:sanserif;font-style:italic;font-weight:normal" x="1097.4" y="310.5">A segment of an</text>
    <text style="fill: #000000;text-anchor:middle;font-size:11.2;font-family:sanserif;font-style:italic;font-weight:normal" x="1097.4" y="324.5">AudioFile object</text>
  </g>
  <g>
    <rect style="fill: #ffffff" x="640" y="380" width="194.8" height="44"/>
    <rect style="fill: none; fill-opacity:0; stroke-width: 2; stroke: #000000" x="640" y="380" width="194.8" height="44"/>
    <text style="fill: #000000;text-anchor:middle;font-size:12.8;font-family:monospace;font-style:normal;font-weight:normal" x="737.4" y="396">&lt;&lt;ConcertBackboneModel&gt;&gt;</text>
    <text style="fill: #000000;text-anchor:middle;font-size:16;font-family:sanserif;font-style:normal;font-weight:700" x="737.4" y="415">Comment</text>
  </g>
  <g>
    <rect style="fill: #ffffff" x="760" y="260" width="194.8" height="72"/>
    <rect style="fill: none; fill-opacity:0; stroke-width: 2; stroke: #000000" x="760" y="260" width="194.8" height="72"/>
    <text style="fill: #000000;text-anchor:middle;font-size:12.8;font-family:monospace;font-style:normal;font-weight:normal" x="857.4" y="276">&lt;&lt;ConcertBackboneModel&gt;&gt;</text>
    <text style="fill: #000000;text-anchor:middle;font-size:16;font-family:sanserif;font-style:normal;font-weight:700" x="857.4" y="295">AudioFile</text>
    <text style="fill: #000000;text-anchor:middle;font-size:11.2;font-family:sanserif;font-style:italic;font-weight:normal" x="857.4" y="310.5">An AudioFile that a</text>
    <text style="fill: #000000;text-anchor:middle;font-size:11.2;font-family:sanserif;font-style:italic;font-weight:normal" x="857.4" y="324.5">user has uploaded.</text>
  </g>
  <g>
    <rect style="fill: #ffffff" x="660" y="-120" width="158.65" height="42"/>
    <rect style="fill: none; fill-opacity:0; stroke-width: 2; stroke: #000000" x="660" y="-120" width="158.65" height="42"/>
    <text style="fill: #000000;text-anchor:middle;font-size:16;font-family:sanserif;font-style:italic;font-weight:700" x="739.325" y="-101">Backbone.Model</text>
    <text style="fill: #000000;text-anchor:middle;font-size:11.2;font-family:sanserif;font-style:italic;font-weight:normal" x="739.325" y="-85.5">The base model</text>
  </g>
  <g>
    <polyline style="fill: none; fill-opacity:0; stroke-width: 2; stroke: #000000" points="739.325,-58.7586 739.325,-49.0021 731.3,-49.0021 731.3,-21.0096 "/>
    <polygon style="fill: #ffffff" points="747.325,-58.7586 739.325,-74.7586 731.325,-58.7586 "/>
    <polygon style="fill: none; fill-opacity:0; stroke-width: 2; stroke: #000000" points="747.325,-58.7586 739.325,-74.7586 731.325,-58.7586 "/>
  </g>
  <g>
    <polyline style="fill: none; fill-opacity:0; stroke-width: 2; stroke: #000000" points="731.3,155.229 731.3,220 857.4,220 857.4,258.993 "/>
    <polygon style="fill: #ffffff" points="739.3,155.229 731.3,139.229 723.3,155.229 "/>
    <polygon style="fill: none; fill-opacity:0; stroke-width: 2; stroke: #000000" points="739.3,155.229 731.3,139.229 723.3,155.229 "/>
  </g>
  <g>
    <polyline style="fill: none; fill-opacity:0; stroke-width: 2; stroke: #000000" points="731.3,155.229 731.3,220 1097.4,220 1097.4,258.993 "/>
    <polygon style="fill: #ffffff" points="739.3,155.229 731.3,139.229 723.3,155.229 "/>
    <polygon style="fill: none; fill-opacity:0; stroke-width: 2; stroke: #000000" points="739.3,155.229 731.3,139.229 723.3,155.229 "/>
  </g>
  <g>
    <polyline style="fill: none; fill-opacity:0; stroke-width: 2; stroke: #000000" points="731.3,155.229 731.3,220 1337.4,220 1337.4,252.025 "/>
    <polygon style="fill: #ffffff" points="739.3,155.229 731.3,139.229 723.3,155.229 "/>
    <polygon style="fill: none; fill-opacity:0; stroke-width: 2; stroke: #000000" points="739.3,155.229 731.3,139.229 723.3,155.229 "/>
  </g>
  <g>
    <polyline style="fill: none; fill-opacity:0; stroke-width: 2; stroke: #000000" points="731.3,155.246 731.3,258.002 737.4,258.002 737.4,378.994 "/>
    <polygon style="fill: #ffffff" points="739.3,155.246 731.3,139.246 723.3,155.246 "/>
    <polygon style="fill: none; fill-opacity:0; stroke-width: 2; stroke: #000000" points="739.3,155.246 731.3,139.246 723.3,155.246 "/>
  </g>
</svg>
